<?xml version="1.0" standalone="no"?>
<!DOCTYPE svg PUBLIC "-//W3C//DTD SVG 20010904//EN"
 "http://www.w3.org/TR/2001/REC-SVG-20010904/DTD/svg10.dtd">
<svg version="1.0" xmlns="http://www.w3.org/2000/svg"
 width="512.000000pt" height="512.000000pt" viewBox="0 0 512.000000 512.000000"
 preserveAspectRatio="xMidYMid meet">
<metadata>
Created by potrace 1.14, written by Peter Selinger 2001-2017
</metadata>
<g transform="translate(0.000000,512.000000) scale(0.100000,-0.100000)"
fill="#000000" stroke="none">
<path d="M787 5110 c17 -22 3 -39 -36 -42 -45 -3 -49 -15 -4 -13 25 1 41 8 51
23 8 12 19 22 24 22 7 0 6 -5 -1 -13 -8 -10 -7 -14 4 -14 7 0 13 5 12 11 -1 6
4 10 11 8 8 -1 11 2 7 8 -9 15 7 12 30 -6 20 -16 20 -16 -2 -10 -15 5 -26 1
-37 -16 -9 -12 -16 -17 -16 -11 0 16 -25 10 -51 -13 -12 -10 -20 -14 -16 -9 3
7 -13 11 -44 11 -46 0 -65 -9 -36 -19 6 -2 -1 -2 -18 1 -16 2 -32 8 -33 13 -5
11 -42 -35 -42 -51 0 -6 -5 -8 -10 -5 -6 4 -8 11 -5 16 3 5 -1 6 -10 2 -14 -5
-14 -8 -3 -15 9 -7 6 -8 -10 -5 -23 6 -24 5 -6 -16 10 -12 12 -16 4 -9 -17 15
-60 16 -60 1 0 -5 5 -7 11 -4 6 4 5 -2 -3 -14 -7 -11 -18 -20 -25 -18 -6 1
-19 -7 -28 -18 -12 -14 -18 -16 -21 -7 -3 6 -10 9 -15 6 -6 -3 -3 -17 7 -32 9
-15 11 -21 3 -15 -10 10 -17 9 -33 -5 -20 -16 -20 -16 -6 2 14 18 13 19 -3 13
-10 -4 -21 -7 -23 -7 -3 0 -2 -5 2 -12 5 -7 2 -9 -8 -6 -12 5 -14 0 -12 -25 3
-23 1 -28 -5 -17 -6 8 -7 18 -5 22 3 4 0 8 -7 8 -7 0 -9 -8 -6 -21 4 -14 1
-19 -7 -16 -15 6 -39 -29 -31 -43 3 -6 -1 -7 -9 -4 -9 3 -14 9 -11 13 2 4 -2
8 -9 8 -7 0 -13 -6 -13 -13 0 -7 4 -11 8 -8 4 2 10 0 14 -6 6 -10 -7 -14 -32
-11 -7 1 -17 -9 -23 -21 -11 -22 -10 -22 4 -4 9 11 19 17 22 13 4 -4 2 -13 -5
-21 -6 -8 -11 -18 -10 -22 4 -23 -3 -31 -26 -29 -14 2 -27 -1 -30 -5 -3 -5 3
-7 15 -5 11 2 22 -1 26 -6 3 -5 2 -9 -3 -8 -20 4 -41 -2 -59 -17 -19 -15 -19
-15 1 -6 15 7 25 5 40 -11 l20 -20 -24 13 c-18 9 -26 9 -35 -1 -8 -9 -8 -10 0
-6 8 5 11 -5 11 -27 -1 -19 -5 -32 -9 -30 -7 5 -10 -3 -7 -23 1 -5 5 -7 11 -5
5 1 7 -2 3 -8 -3 -6 -11 -8 -16 -5 -5 4 -12 -1 -15 -10 -5 -12 -9 -13 -14 -5
-15 25 -28 -1 -26 -50 2 -27 -1 -47 -6 -44 -4 3 -8 -2 -8 -11 0 -10 -5 -13
-12 -9 -7 4 -8 3 -4 -5 6 -9 11 -9 24 1 13 12 14 10 4 -9 -8 -14 -9 -24 -2
-28 7 -4 7 -12 0 -25 -5 -10 -7 -20 -2 -23 4 -2 1 -2 -5 -1 -7 2 -13 -4 -13
-12 0 -8 5 -12 11 -9 6 4 5 -2 -3 -14 -7 -12 -17 -21 -22 -21 -4 0 -2 8 5 18
13 15 12 16 -3 4 -9 -8 -21 -11 -26 -8 -5 3 -9 -1 -9 -9 0 -14 11 -19 31 -16
15 3 34 -19 32 -36 -2 -9 -12 -23 -24 -31 -20 -13 -21 -12 -17 7 2 12 -1 21
-6 21 -6 0 -8 4 -4 9 3 5 2 12 -2 14 -5 3 -8 -26 -8 -63 0 -38 3 -66 7 -64 10
6 10 -10 1 -20 -10 -10 -10 -226 -1 -220 10 7 10 -10 1 -20 -11 -10 -11 -106
-1 -100 10 6 11 -10 1 -20 -4 -3 -7 -20 -8 -36 -1 -23 1 -27 12 -19 17 14 17
-3 1 -20 -20 -19 -18 -312 2 -329 13 -12 13 -13 0 -9 -14 4 -15 -126 -15
-1173 0 -648 3 -1176 7 -1173 13 7 9 -12 -5 -27 -10 -12 -9 -12 6 -1 19 15 24
2 5 -17 -7 -7 -9 -12 -4 -12 15 0 36 29 26 35 -6 4 -8 16 -5 28 5 16 4 18 -3
8 -7 -9 -12 -10 -16 -2 -6 9 7 16 17 9 2 -2 11 3 20 11 11 9 17 10 17 2 0 -6
-5 -11 -10 -11 -15 0 -6 -50 11 -62 11 -8 11 -9 -3 -5 -10 4 -18 -1 -21 -14
-4 -15 -2 -18 7 -10 9 8 13 7 13 -4 0 -14 -10 -19 -29 -16 -4 0 -5 -6 -2 -14
4 -8 10 -15 16 -15 5 0 7 4 4 9 -3 5 4 11 16 14 16 4 18 3 9 -6 -12 -12 -15
-31 -3 -23 4 2 9 -5 9 -17 2 -20 1 -20 -8 -5 -6 10 -15 18 -22 18 -8 0 -7 -3
2 -9 9 -6 11 -18 8 -33 -4 -15 -1 -32 8 -44 9 -10 14 -14 13 -9 -2 6 0 11 5
13 4 1 6 -1 5 -5 -7 -35 -12 -41 -26 -36 -10 3 -8 -2 6 -11 12 -10 26 -15 30
-12 4 2 14 1 22 -5 9 -5 10 -9 4 -9 -7 0 -14 -7 -18 -15 -3 -9 0 -15 10 -15 8
0 13 4 10 8 -3 5 2 9 10 9 10 0 11 -4 4 -11 -6 -6 -4 -16 8 -30 13 -16 13 -18
1 -8 -9 6 -20 8 -24 4 -5 -4 -5 -2 -2 4 3 6 0 11 -8 11 -21 0 -7 -17 29 -34
19 -9 23 -12 9 -10 -13 3 -28 -2 -35 -12 -12 -14 -11 -15 5 -2 13 10 17 10 17
1 0 -7 6 -10 13 -7 22 8 57 -28 52 -55 -4 -19 1 -26 23 -34 23 -8 24 -11 9
-17 -12 -5 -16 -3 -11 5 4 7 3 8 -4 4 -6 -4 -8 -14 -5 -23 5 -12 3 -14 -7 -8
-9 5 -11 4 -6 -4 4 -6 12 -8 18 -5 7 5 9 2 5 -8 -8 -21 16 -17 45 8 l22 19
-17 -27 c-22 -36 -21 -41 5 -32 l22 7 -19 -29 c-15 -24 -16 -27 -2 -15 9 7 17
9 17 3 0 -5 9 -12 20 -15 14 -4 18 -11 14 -24 -5 -15 -4 -15 5 -3 6 8 11 11
11 5 0 -5 8 -1 16 10 l16 20 -4 -20 c-2 -12 2 -19 10 -17 7 1 15 -5 18 -13 3
-8 10 -12 15 -9 5 3 6 11 3 17 -4 7 -3 8 2 4 5 -5 9 -14 9 -20 1 -7 6 -11 13
-10 18 4 14 -8 -10 -28 -28 -25 -18 -24 29 2 l38 21 -25 -22 c-19 -17 -20 -20
-6 -16 14 5 17 2 12 -9 -3 -9 -2 -13 4 -10 6 3 10 1 10 -6 0 -7 11 -10 29 -7
17 2 29 0 28 -5 -1 -5 4 -12 12 -15 10 -3 11 0 5 9 -6 11 -5 12 8 2 8 -7 18
-10 21 -6 4 3 9 -2 13 -11 3 -9 9 -14 14 -11 4 2 13 -7 20 -20 7 -14 17 -25
22 -25 16 0 23 -2 40 -11 14 -7 16 -6 12 6 -3 8 -11 12 -18 8 -6 -3 -8 -3 -4
2 4 4 1 13 -8 19 -13 10 -13 12 5 12 11 0 18 -2 16 -5 -3 -2 0 -10 6 -18 8 -9
15 -10 24 -3 8 7 12 5 12 -5 0 -8 -4 -12 -9 -9 -4 3 -8 1 -8 -3 0 -5 10 -14
23 -22 20 -13 21 -13 8 2 -8 11 -9 17 -3 17 6 0 9 8 5 17 -5 15 -3 14 10 -2
14 -19 16 -19 22 -3 4 10 11 15 17 12 5 -3 1 -12 -9 -19 -10 -7 -22 -11 -27
-8 -5 4 -6 1 -2 -5 4 -6 12 -9 19 -7 28 9 101 14 88 6 -8 -5 -9 -11 -3 -15 5
-3 15 1 22 9 11 14 15 14 33 -2 19 -16 20 -16 14 -1 -4 12 -2 15 8 12 18 -7
27 -32 14 -40 -6 -3 -16 -1 -22 5 -15 15 -30 14 -21 -1 4 -7 3 -8 -4 -4 -6 4
-9 14 -6 24 4 12 3 13 -3 4 -10 -13 -57 -27 -49 -14 2 4 -11 7 -30 8 -34 1
-34 1 -11 -15 18 -13 56 -16 219 -16 108 -1 194 3 191 8 -3 4 -12 6 -20 3 -9
-4 -11 -2 -7 6 5 8 2 9 -12 3 -29 -12 -77 -14 -96 -3 -12 6 -18 5 -18 -3 0 -8
-4 -8 -15 1 -12 10 -15 10 -15 -1 -1 -9 -6 -7 -16 6 l-15 20 -16 -20 c-12 -15
-14 -16 -10 -3 3 9 1 19 -6 21 -7 3 5 4 25 3 20 -1 40 -5 44 -9 11 -11 26 -8
19 3 -3 6 -1 10 4 10 6 0 11 -4 11 -10 0 -5 5 -10 10 -10 7 0 7 7 0 22 -11 22
-10 22 4 4 9 -10 13 -22 11 -26 -2 -4 9 -7 25 -7 26 0 28 3 19 21 -9 19 -9 20
4 4 16 -20 32 -25 21 -7 -5 8 -1 8 14 0 32 -17 40 -13 14 7 -21 17 -22 18 -3
18 11 0 17 -4 15 -8 -3 -4 0 -8 6 -8 7 0 10 -6 7 -13 -4 -10 4 -14 24 -14 22
0 26 3 18 13 -20 25 1 35 28 14 14 -11 30 -16 37 -13 17 12 66 12 66 1 0 -6 9
-8 19 -5 12 3 18 0 15 -7 -2 -6 -16 -12 -31 -13 -16 0 -21 2 -13 7 6 4 8 10 3
13 -5 3 -15 2 -22 -2 -7 -5 -26 -7 -42 -5 -17 2 -28 0 -25 -5 3 -4 -10 -7 -29
-5 -19 1 -35 -1 -35 -4 0 -4 113 -8 250 -8 138 0 250 3 250 8 0 4 5 8 11 8 5
0 8 -4 5 -8 -3 -5 40 -8 94 -8 54 0 97 3 94 8 -3 4 0 8 5 8 6 0 11 -4 11 -8 0
-13 313 -10 322 3 5 6 8 6 8 -2 0 -7 5 -13 11 -13 5 0 8 4 5 9 -3 5 1 12 10
15 8 3 12 11 9 17 -4 6 2 5 14 -3 12 -7 21 -17 21 -22 0 -4 -6 -3 -13 3 -13
10 -27 6 -27 -9 0 -11 75 -8 82 4 6 8 8 8 8 -1 0 -7 5 -13 11 -13 5 0 7 4 4
10 -3 5 -2 10 4 10 5 0 12 -6 15 -12 5 -10 7 -10 12 0 3 6 10 12 15 12 6 0 7
-5 4 -10 -3 -5 -1 -10 4 -10 6 0 11 6 11 13 0 9 2 9 8 1 7 -12 82 -15 82 -4 0
15 -14 19 -27 9 -21 -18 -15 -1 8 22 11 11 19 14 18 7 -3 -18 11 -48 23 -48 5
0 6 5 3 10 -3 6 -1 10 4 10 6 0 11 -4 11 -8 0 -12 134 -9 142 2 4 6 1 17 -5
26 -11 13 -10 13 6 1 11 -9 17 -10 17 -2 0 6 5 11 10 11 6 0 3 -11 -6 -25 -18
-28 -8 -34 12 -7 10 12 12 12 9 2 -4 -12 4 -15 35 -17 22 0 40 3 40 8 0 5 5 9
11 9 5 0 7 -5 4 -10 -3 -5 -2 -10 3 -10 6 0 12 7 16 15 6 17 26 20 26 4 0 -5
-4 -7 -10 -4 -5 3 -10 2 -10 -2 0 -5 78 -9 174 -9 96 0 173 3 170 8 -3 4 0 8
5 8 6 0 11 -4 11 -8 0 -18 74 -9 94 11 18 17 18 19 3 14 -11 -4 -16 -3 -12 3
9 14 17 12 45 -10 14 -11 18 -19 10 -18 -8 2 -18 7 -21 11 -3 4 -11 2 -17 -5
-8 -11 44 -13 284 -13 162 0 294 3 294 7 0 5 5 8 11 8 5 0 8 -3 6 -8 -3 -4 60
-7 139 -7 79 0 138 3 132 7 -7 3 -16 4 -22 1 -5 -4 -7 1 -3 11 5 12 3 15 -5
10 -7 -4 -33 -8 -59 -9 -39 -1 -46 1 -42 14 4 11 0 9 -11 -4 -10 -11 -15 -15
-12 -9 3 6 -1 11 -9 11 -8 0 -12 -3 -10 -7 5 -8 -72 -7 -80 2 -4 4 -15 3 -25
-2 -10 -5 -21 -6 -25 -2 -5 4 -5 1 0 -7 6 -10 4 -12 -6 -5 -8 5 -32 9 -54 9
-22 0 -46 4 -54 9 -9 6 -12 5 -8 0 3 -6 -5 -10 -18 -10 -13 0 -21 4 -18 9 3 5
-3 4 -14 -2 -14 -7 -24 -7 -33 2 -7 7 -10 7 -7 1 4 -6 -11 -10 -40 -9 -28 0
-48 6 -51 13 -3 10 -8 8 -19 -5 -8 -10 -12 -13 -9 -7 3 6 -1 11 -9 11 -8 0
-12 -3 -10 -7 2 -3 -7 -6 -20 -6 -14 0 -21 4 -17 11 4 6 1 6 -9 -1 -19 -15
-111 -12 -117 4 -2 6 3 12 12 12 9 0 16 -5 16 -11 0 -5 5 -7 10 -4 6 4 7 11 4
17 -5 7 -2 8 7 2 22 -13 41 -14 36 0 -3 6 3 12 13 12 10 0 17 -3 15 -6 -2 -3
5 -11 16 -18 21 -14 25 -3 7 18 -11 12 -10 12 2 3 9 -7 28 -10 43 -9 17 2 31
-3 37 -13 8 -14 9 -14 10 2 0 9 4 17 10 17 5 0 6 -8 3 -17 -6 -15 -4 -16 8 -6
12 10 18 10 29 0 10 -10 12 -9 7 5 -4 13 -2 15 10 11 9 -4 14 -2 10 3 -3 6 5
10 18 10 13 0 21 -5 18 -11 -2 -7 3 -12 12 -12 9 0 14 6 11 14 -3 8 -2 12 3 8
5 -3 12 1 15 7 3 7 3 2 -1 -12 -5 -22 -4 -23 11 -11 9 7 16 10 16 6 0 -4 6 -2
14 4 16 14 56 -1 56 -20 0 -6 4 -8 10 -4 5 3 7 13 4 23 -5 14 -4 15 5 2 7 -10
11 -11 11 -2 0 6 5 12 11 12 8 0 9 -4 0 -13 -17 -21 -1 -29 18 -9 9 10 15 16
14 14 -3 -6 24 -32 32 -32 3 0 1 10 -5 22 -11 22 -10 22 4 4 9 -11 16 -16 16
-12 0 5 8 2 17 -5 15 -12 16 -12 10 4 -5 14 -3 16 11 8 11 -6 24 -6 35 0 9 6
17 6 17 2 0 -4 5 -1 11 7 8 12 9 9 4 -10 l-6 -25 20 24 c13 14 21 18 21 10 0
-12 2 -12 9 -1 7 11 9 11 14 -2 4 -9 12 -16 18 -16 8 0 9 4 0 13 -8 10 -7 14
4 14 8 0 13 -3 10 -5 -8 -9 37 -42 48 -35 6 4 8 0 4 -11 -6 -15 -3 -14 19 3
15 11 31 18 38 14 6 -3 8 -2 3 2 -10 11 -48 14 -41 3 3 -4 0 -8 -5 -8 -6 0
-11 7 -11 16 0 8 -5 12 -10 9 -6 -4 -7 -11 -4 -17 4 -7 2 -8 -5 -4 -21 13 7
38 29 26 13 -7 25 -4 46 12 20 16 25 17 15 5 -13 -16 -12 -21 9 -40 22 -20 22
-20 7 -1 -9 11 -14 24 -10 27 9 10 25 9 19 -1 -2 -4 4 -8 14 -8 13 0 17 7 15
24 l-2 23 19 -21 c20 -22 34 -27 22 -9 -4 8 0 9 15 4 13 -4 21 -2 21 5 0 6 -4
9 -9 5 -5 -3 -12 -2 -15 3 -2 4 5 9 16 9 28 2 33 10 19 27 -8 10 -9 16 -1 21
6 4 9 3 8 -2 -3 -8 5 -13 23 -13 5 0 7 4 4 10 -4 6 1 7 11 3 14 -5 13 -8 -7
-25 l-24 -20 31 18 c23 12 30 22 27 38 -4 18 -2 18 11 -4 11 -18 15 -20 16 -9
0 9 7 20 16 23 8 3 12 11 9 16 -4 6 -1 9 7 8 7 -2 12 2 11 7 -1 6 7 12 18 12
16 2 13 -5 -17 -33 -31 -27 -35 -36 -25 -47 7 -6 11 -7 10 -2 -1 6 1 18 6 28
6 15 10 16 17 5 7 -10 8 -8 4 5 -4 13 -1 17 11 15 10 -2 18 3 18 11 0 8 8 15
18 17 22 3 36 14 19 14 -7 0 -12 5 -12 10 0 7 8 6 23 -1 21 -12 21 -11 7 6
-13 17 -13 18 1 13 9 -4 16 -1 16 8 0 7 -3 11 -7 9 -3 -2 -6 6 -7 18 0 12 1
16 4 9 3 -6 10 -9 15 -6 7 4 8 2 4 -4 -4 -6 1 -10 13 -9 19 1 19 3 5 18 -12
13 -12 17 -2 15 23 -3 38 -17 32 -29 -4 -7 -3 -8 1 -4 11 10 16 39 5 32 -4 -3
-10 7 -13 20 -2 14 -2 23 1 20 3 -2 12 1 20 8 13 10 14 9 4 -9 -8 -16 -8 -21
2 -21 9 0 13 11 12 29 -2 28 -2 28 23 11 25 -16 25 -16 11 2 -14 17 -13 18 4
12 16 -6 17 -5 6 8 -7 8 -16 13 -20 10 -5 -3 -12 -1 -15 5 -4 6 -1 9 7 8 7 -2
12 3 10 10 -1 8 2 11 8 7 6 -3 8 -10 6 -14 -3 -4 1 -8 9 -8 10 0 11 5 5 17 -7
13 -4 22 9 34 9 9 22 16 27 16 5 0 2 -6 -6 -13 -21 -17 -24 -38 -4 -30 8 3 13
8 10 10 -3 3 3 14 14 25 11 12 17 33 16 54 -1 29 2 34 16 31 11 -3 15 0 11 9
-3 8 -9 12 -13 9 -4 -3 -13 2 -19 9 -9 10 -9 16 -1 21 6 4 10 3 9 -2 -3 -20 2
-25 16 -13 8 7 15 9 15 4 0 -5 7 2 16 14 8 12 19 20 23 18 4 -3 8 1 8 9 0 13
-3 13 -18 -1 -13 -12 -19 -12 -25 -3 -4 7 -3 10 3 6 6 -4 14 0 17 9 8 22 8 26
-3 19 -5 -3 -13 -1 -16 5 -4 6 -3 10 2 9 4 -1 17 -1 28 0 17 1 18 3 5 11 -14
9 -7 14 13 11 5 -1 5 3 2 9 -4 6 -13 9 -21 6 -8 -3 -11 0 -7 9 3 8 10 12 16 8
6 -4 8 0 5 9 -7 18 8 46 19 35 4 -5 1 -12 -6 -16 -8 -6 -9 -11 -3 -15 6 -3 14
3 17 15 5 14 10 17 14 10 4 -6 7 403 7 909 0 506 -3 920 -6 920 -4 0 -19 -12
-34 -26 -23 -24 -30 -36 -28 -55 1 -3 -41 -5 -91 -5 -51 0 -109 -6 -130 -13
-60 -20 -68 -47 -73 -245 -6 -225 -7 -231 -46 -247 -40 -16 -193 -18 -209 -2
-19 19 -27 142 -25 393 2 301 0 294 113 298 62 2 96 -2 143 -18 l62 -21 56 28
c49 24 69 28 137 27 45 0 92 -4 106 -7 l25 -6 -1 837 c0 460 -4 842 -8 849 -4
7 -15 9 -23 6 -12 -4 -13 -8 -3 -14 7 -4 17 -5 21 -3 4 3 8 2 8 -3 0 -4 -11
-13 -25 -20 -14 -6 -25 -7 -25 -2 0 5 5 9 11 9 8 0 8 4 0 13 -8 10 -7 17 1 25
9 9 9 15 1 23 -6 6 -9 18 -6 25 3 8 0 14 -7 14 -6 0 -8 -4 -5 -10 10 -16 -1
-11 -16 7 -10 11 -10 14 -1 9 7 -4 12 -1 12 9 0 10 5 13 12 9 7 -5 8 -3 3 5
-5 9 -10 10 -18 2 -14 -14 -27 -14 -27 0 0 5 3 8 8 6 4 -2 15 5 25 15 17 18
17 18 -8 12 -15 -4 -25 -2 -25 4 0 6 -7 18 -16 27 -14 13 -14 19 -4 28 10 9
11 9 6 0 -3 -6 -2 -14 3 -17 11 -7 9 13 -2 32 -5 6 -5 12 -1 12 4 0 0 8 -9 18
-10 10 -14 22 -10 27 5 4 2 5 -5 1 -7 -4 -10 -11 -8 -15 3 -4 -2 -8 -10 -8
-10 0 -11 4 -4 11 13 13 13 36 -1 36 -5 0 -8 -4 -5 -9 3 -5 -1 -14 -9 -21 -10
-9 -15 -9 -15 -1 0 6 6 11 13 11 8 0 7 3 -3 9 -8 6 -19 7 -25 3 -5 -3 -4 2 4
11 15 18 26 23 16 7 -8 -13 5 -13 25 0 13 8 12 10 -5 11 -11 1 -26 1 -32 0 -7
-1 -13 8 -13 21 0 19 2 20 10 8 5 -8 10 -10 10 -4 0 15 -29 39 -37 30 -3 -3
-1 -6 6 -6 7 0 9 -5 5 -11 -4 -8 -9 -7 -15 2 -4 7 -3 19 2 25 7 9 4 16 -11 24
-11 6 -17 16 -14 22 4 7 2 8 -5 4 -9 -6 -9 -11 0 -22 7 -8 7 -14 1 -14 -13 0
-22 24 -17 49 3 17 0 19 -20 11 -19 -7 -23 -6 -18 6 4 10 0 12 -11 8 -9 -3
-13 -11 -9 -17 3 -6 1 -7 -6 -3 -9 6 -9 11 1 24 11 13 11 15 -3 10 -9 -4 -16
-1 -16 8 0 7 4 11 9 8 4 -3 5 2 2 10 -3 9 -12 12 -21 9 -12 -5 -14 -2 -9 8 4
8 -2 3 -14 -11 -19 -22 -22 -22 -18 -5 2 13 -2 19 -10 17 -8 -1 -11 2 -8 7 8
12 -4 41 -16 41 -6 0 -5 -6 2 -15 7 -8 11 -15 9 -16 -31 -6 -38 -5 -36 4 1 7
-3 11 -10 10 -8 -2 -10 4 -6 14 5 12 3 14 -7 8 -9 -6 -11 -4 -5 5 6 10 11 10
20 -3 7 -9 15 -14 18 -10 10 10 8 25 -2 18 -5 -3 -18 5 -28 17 -19 25 -82 33
-95 13 -5 -6 -8 -5 -8 3 0 7 10 17 22 22 19 7 15 8 -16 5 -45 -3 -76 4 -76 17
0 5 5 6 10 3 19 -12 60 -16 60 -6 0 6 -9 8 -20 6 -11 -2 -26 2 -33 9 -10 10
-15 10 -24 1 -7 -7 -9 -16 -5 -21 4 -4 1 -4 -6 0 -9 6 -10 11 -3 20 8 9 7 13
-3 13 -9 0 -13 -9 -11 -23 1 -13 -2 -21 -6 -18 -5 3 -9 13 -9 23 0 10 -8 25
-17 32 -14 12 -16 12 -8 0 6 -11 4 -13 -8 -8 -9 3 -19 2 -22 -3 -3 -4 5 -7 18
-6 14 2 24 -2 24 -10 0 -9 -5 -10 -16 -4 -11 6 -22 4 -33 -7 -13 -11 -16 -12
-14 -1 1 7 5 19 9 25 5 7 4 21 -2 30 -8 15 -27 18 -125 19 -86 2 -114 -1 -109
-9 5 -9 3 -9 -8 0 -19 15 -81 14 -72 -1 5 -8 3 -8 -8 0 -17 13 -58 13 -78 0
-10 -6 -12 -6 -7 2 10 17 -56 16 -73 0 -11 -10 -12 -10 -7 -1 5 10 -4 12 -33
11 -26 -1 -38 -5 -34 -12 5 -8 3 -8 -8 0 -17 13 -58 13 -78 0 -10 -6 -12 -6
-7 2 5 8 -1 12 -14 12 -13 0 -19 -4 -14 -11 5 -8 1 -8 -14 0 -22 12 -49 11
-71 -3 -9 -6 -12 -5 -8 1 4 6 -10 10 -34 11 -30 1 -38 -1 -33 -11 6 -9 5 -9
-7 0 -10 8 -46 12 -96 11 -74 0 -81 -2 -78 -19 2 -10 0 -21 -4 -24 -5 -2 -8 5
-7 18 1 17 -5 23 -28 25 -21 3 -26 0 -20 -10 6 -10 4 -10 -9 1 -14 11 -20 11
-34 0 -11 -10 -14 -10 -9 -1 5 8 0 12 -14 12 -14 0 -19 -4 -14 -12 6 -10 4
-10 -7 -2 -8 6 -32 11 -54 10 -34 -1 -40 -4 -40 -23 0 -12 -3 -24 -6 -28 -4
-3 -5 8 -4 25 2 25 -1 30 -19 30 -12 0 -28 -6 -35 -12 -11 -10 -12 -10 -7 -1
5 10 -14 13 -83 12 -81 -2 -89 -3 -86 -20 2 -10 0 -21 -4 -24 -5 -2 -8 5 -7
18 1 17 -5 23 -28 25 -21 3 -26 0 -20 -10 6 -10 4 -10 -9 1 -14 11 -20 11 -34
0 -11 -10 -14 -10 -9 -1 5 8 0 12 -14 12 -14 0 -19 -4 -14 -12 6 -10 4 -10 -7
-2 -8 6 -32 11 -54 10 -34 -1 -40 -4 -40 -23 0 -12 -3 -24 -6 -28 -4 -3 -5 8
-4 25 2 25 -1 30 -19 30 -12 0 -28 -6 -35 -12 -11 -10 -13 -10 -7 0 5 8 -2 12
-23 12 -25 0 -29 -3 -26 -21 3 -12 1 -18 -3 -15 -4 4 -7 13 -7 19 0 7 -13 13
-29 15 -21 3 -26 0 -20 -10 6 -11 5 -11 -9 0 -20 17 -76 13 -102 -7 -18 -15
-19 -15 -6 2 13 16 12 18 -10 15 -13 -2 -30 -7 -38 -12 -10 -6 -12 -5 -7 2 5
8 -1 12 -14 12 -14 0 -19 -4 -14 -12 6 -10 4 -10 -7 -2 -8 6 -32 11 -54 10
-34 -1 -40 -4 -40 -23 0 -12 -3 -24 -6 -28 -4 -3 -5 8 -4 25 2 25 -1 30 -19
30 -12 0 -28 -6 -35 -12 -11 -10 -12 -10 -7 -1 5 10 -14 13 -83 12 -81 -2 -89
-3 -86 -20 2 -10 0 -21 -4 -24 -5 -2 -8 5 -7 18 1 17 -5 23 -28 25 -21 3 -26
0 -20 -10 6 -10 4 -10 -9 1 -14 11 -20 11 -34 0 -11 -10 -14 -10 -9 -1 5 8 0
12 -14 12 -14 0 -19 -4 -14 -12 6 -10 4 -10 -7 -2 -8 6 -32 11 -54 10 -34 -1
-40 -4 -40 -23 0 -12 -3 -24 -6 -28 -4 -3 -5 8 -4 25 2 25 -1 30 -19 30 -12 0
-28 -6 -35 -12 -11 -10 -13 -10 -7 0 5 8 -2 12 -23 12 -25 0 -29 -3 -26 -21 3
-12 1 -18 -3 -15 -4 4 -7 13 -7 19 0 15 -75 18 -94 3 -11 -8 -13 -8 -7 2 11
18 -35 11 -60 -8 -18 -14 -18 -14 -5 3 13 17 12 18 -10 15 -13 -2 -30 -7 -38
-12 -10 -6 -12 -5 -7 2 5 8 -1 12 -14 12 -13 0 -19 -4 -14 -11 4 -8 1 -8 -12
-1 -22 12 -344 12 -344 0 0 -4 -5 -8 -11 -8 -5 0 -8 4 -5 9 3 4 -15 8 -39 7
-25 0 -45 -5 -45 -10 0 -4 -8 -2 -17 5 -16 12 -17 12 -6 -1z m193 -17 c0 -3
-9 -3 -21 0 -16 4 -19 2 -14 -11 5 -13 3 -14 -6 -5 -16 16 -3 32 21 26 11 -3
20 -8 20 -10z m190 7 c0 -5 -4 -10 -10 -10 -5 0 -10 5 -10 10 0 6 5 10 10 10
6 0 10 -4 10 -10z m450 6 c0 -2 -8 -10 -17 -17 -16 -13 -17 -12 -4 4 13 16 21
21 21 13z m301 -13 c13 -16 12 -17 -3 -4 -10 7 -18 15 -18 17 0 8 8 3 21 -13z
m59 13 c0 -2 -8 -10 -17 -17 -16 -13 -17 -12 -4 4 13 16 21 21 21 13z m120 0
c0 -2 -8 -10 -17 -17 -16 -13 -17 -12 -4 4 13 16 21 21 21 13z m480 0 c0 -2
-8 -10 -17 -17 -16 -13 -17 -12 -4 4 13 16 21 21 21 13z m301 -13 c13 -16 12
-17 -3 -4 -17 13 -22 21 -14 21 2 0 10 -8 17 -17z m59 13 c0 -2 -8 -10 -17
-17 -16 -13 -17 -12 -4 4 13 16 21 21 21 13z m120 0 c0 -2 -8 -10 -17 -17 -16
-13 -17 -12 -4 4 13 16 21 21 21 13z m301 -13 c13 -16 12 -17 -3 -4 -10 7 -18
15 -18 17 0 8 8 3 21 -13z m59 13 c0 -2 -8 -10 -17 -17 -16 -13 -17 -12 -4 4
13 16 21 21 21 13z m83 -19 c4 3 7 4 7 0 0 -17 -20 -14 -36 6 -19 22 -19 22 2
4 11 -9 24 -14 27 -10z m787 11 c0 -9 4 -8 10 2 6 10 10 11 10 3 0 -7 7 -13
16 -13 8 0 12 -5 9 -10 -4 -6 -10 -8 -15 -5 -5 3 -14 -3 -20 -12 -10 -15 -11
-16 -6 -1 2 9 -2 22 -11 30 -14 11 -15 10 -10 -12 4 -14 4 -19 1 -12 -3 6 -10
9 -16 6 -6 -4 -5 2 1 15 13 23 31 28 31 9z m-3263 -10 c0 -7 -11 -13 -24 -13
-29 0 -29 3 0 15 12 5 22 9 23 9 0 1 1 -5 1 -11z m360 -1 c0 -8 -6 -14 -14
-14 -9 0 -10 4 -2 14 6 7 12 13 14 13 1 0 2 -6 2 -13z m960 -2 c0 -8 -4 -15
-9 -15 -10 0 -11 14 -1 23 9 10 10 9 10 -8z m1393 11 c0 -2 -7 -7 -16 -10 -8
-3 -12 -2 -9 4 6 10 25 14 25 6z m230 0 c0 -2 -6 -9 -14 -15 -11 -9 -16 -9
-22 0 -4 7 -3 9 4 5 6 -3 13 -2 17 4 6 10 15 14 15 6z m35 -6 c3 -6 -1 -7 -9
-4 -18 7 -21 14 -7 14 6 0 13 -4 16 -10z m145 7 c0 -2 -10 -12 -22 -23 l-23
-19 19 23 c18 21 26 27 26 19z m92 -9 c-14 -14 -44 -20 -36 -7 3 5 9 7 14 4 5
-3 11 -1 15 5 3 5 9 10 13 10 3 0 1 -5 -6 -12z m-3318 -13 c3 -8 1 -15 -4 -15
-6 0 -10 7 -10 15 0 8 2 15 4 15 2 0 6 -7 10 -15z m2930 3 c-2 -3 -13 -6 -24
-5 -24 2 -18 13 9 13 11 0 18 -4 15 -8z m256 6 c0 -8 -19 -13 -24 -6 -3 5 1 9
9 9 8 0 15 -2 15 -3z m75 -3 c3 -5 2 -12 -3 -15 -5 -3 -9 1 -9 9 0 17 3 19 12
6z m-3313 -18 c-6 -2 -9 -10 -6 -15 4 -7 2 -8 -5 -4 -13 9 -5 26 12 25 9 0 8
-2 -1 -6z m473 -3 c3 -5 1 -10 -4 -10 -6 0 -11 5 -11 10 0 6 2 10 4 10 3 0 8
-4 11 -10z m480 0 c3 -5 1 -10 -4 -10 -6 0 -11 5 -11 10 0 6 2 10 4 10 3 0 8
-4 11 -10z m125 0 c0 -5 -5 -10 -11 -10 -5 0 -7 5 -4 10 3 6 8 10 11 10 2 0 4
-4 4 -10z m355 0 c3 -5 1 -10 -4 -10 -6 0 -11 5 -11 10 0 6 2 10 4 10 3 0 8
-4 11 -10z m480 0 c3 -5 1 -10 -4 -10 -6 0 -11 5 -11 10 0 6 2 10 4 10 3 0 8
-4 11 -10z m125 0 c0 -5 -5 -10 -11 -10 -5 0 -7 5 -4 10 3 6 8 10 11 10 2 0 4
-4 4 -10z m355 0 c3 -5 1 -10 -4 -10 -6 0 -11 5 -11 10 0 6 2 10 4 10 3 0 8
-4 11 -10z m485 0 c0 -5 -5 -10 -11 -10 -5 0 -7 5 -4 10 3 6 8 10 11 10 2 0 4
-4 4 -10z m-3117 -55 c-6 -16 -16 -19 -26 -8 -9 8 13 34 24 28 4 -3 6 -12 2
-20z m3989 -23 c4 -4 -3 -14 -15 -21 -21 -13 -21 -13 -7 4 14 16 13 17 -8 11
-15 -5 -22 -3 -22 6 0 10 -3 9 -10 -2 -5 -8 -10 -10 -10 -4 0 6 3 13 6 17 7 7
56 -1 66 -11z m-4111 -65 c-10 -9 -11 -8 -5 6 3 10 9 15 12 12 3 -3 0 -11 -7
-18z m-131 -91 c0 -2 -7 -6 -15 -10 -8 -3 -15 -1 -15 4 0 6 7 10 15 10 8 0 15
-2 15 -4z m4452 -13 c-6 -2 -9 -10 -6 -15 4 -7 2 -8 -5 -4 -13 9 -5 26 12 25
9 0 8 -2 -1 -6z m-4532 -43 c-12 -8 -12 -10 -1 -10 8 0 12 -3 8 -6 -9 -9 -28
6 -22 17 4 5 12 9 18 9 7 0 6 -4 -3 -10z m4578 -14 c-7 -8 -15 -12 -17 -11 -5
6 10 25 20 25 5 0 4 -6 -3 -14z m-4628 -70 c0 -3 -4 -8 -10 -11 -5 -3 -10 -1
-10 4 0 6 5 11 10 11 6 0 10 -2 10 -4z m4746 -91 c1 -8 -1 -13 -6 -10 -5 3
-10 2 -13 -2 -2 -5 -2 -2 -1 5 2 6 -4 12 -14 13 -14 0 -14 2 3 8 23 9 28 7 31
-14z m-4897 -205 c0 -10 -3 -8 -9 5 -12 27 -12 43 0 25 5 -8 9 -22 9 -30z
m4971 8 c0 -15 -15 -8 -28 12 -12 19 -11 20 8 8 11 -7 20 -16 20 -20z m37 -77
c0 -11 -6 -17 -14 -14 -14 6 -17 16 -6 26 12 13 22 7 20 -12z m-11 -35 c10 -8
16 -18 11 -22 -4 -4 -7 -2 -7 4 0 7 -5 12 -11 12 -5 0 -7 -5 -3 -12 4 -7 3 -8
-5 -4 -6 4 -9 11 -6 16 3 4 -1 11 -7 13 -7 3 -8 6 -2 6 5 1 19 -5 30 -13z m-8
-50 c-7 -8 -15 -12 -17 -11 -5 6 10 25 20 25 5 0 4 -6 -3 -14z m22 -10 c0 -2
-7 -9 -15 -16 -13 -11 -14 -10 -9 4 5 14 24 23 24 12z m-5020 -10 c0 -2 -7 -9
-15 -16 -13 -11 -14 -10 -9 4 5 14 24 23 24 12z m4990 -30 c0 -2 -7 -7 -16
-10 -8 -3 -12 -2 -9 4 6 10 25 14 25 6z m25 -6 c3 -5 1 -10 -4 -10 -6 0 -11 5
-11 10 0 6 2 10 4 10 3 0 8 -4 11 -10z m1 -59 c-9 -13 -33 -14 -40 -2 -4 5 3
7 14 4 11 -3 20 0 20 6 0 6 -5 10 -11 9 -6 -2 -13 6 -15 16 -3 18 -2 18 18 -1
11 -12 17 -26 14 -32z m-5016 5 c0 -3 -4 -8 -10 -11 -5 -3 -10 -1 -10 4 0 6 5
11 10 11 6 0 10 -2 10 -4z m-40 -27 c0 -6 6 -7 13 -3 6 4 1 -5 -12 -19 -24
-26 -17 -39 7 -15 7 7 12 8 12 2 0 -5 -9 -15 -21 -22 -12 -7 -18 -16 -15 -19
3 -3 12 0 21 7 13 11 14 10 9 -4 -3 -9 -12 -16 -20 -16 -8 0 -14 -5 -14 -11 0
-5 5 -7 12 -3 6 4 8 3 4 -4 -3 -6 -1 -14 5 -17 5 -4 8 -14 5 -22 -4 -9 -1 -23
6 -31 9 -11 4 -10 -17 4 l-30 19 20 -26 c11 -15 23 -25 26 -23 8 5 5 -29 -5
-44 -4 -7 -11 -10 -16 -7 -4 3 -10 -2 -13 -10 -4 -9 -1 -12 9 -8 7 3 14 0 14
-7 0 -6 4 -9 8 -6 4 2 8 -4 8 -15 0 -18 -2 -19 -12 -4 -10 13 -12 14 -17 1 -4
-9 1 -17 12 -21 12 -4 18 -14 17 -29 0 -13 -4 -22 -8 -19 -5 2 -8 0 -8 -6 0
-5 3 -11 8 -14 4 -2 2 -2 -5 -1 -7 2 -15 -1 -18 -6 -6 -10 5 -13 35 -11 10 0
11 -1 2 -5 -6 -3 -9 -11 -5 -17 4 -7 -1 -6 -10 2 -15 12 -17 12 -11 -3 3 -9 1
-16 -5 -16 -6 0 -11 -5 -11 -11 0 -5 4 -8 9 -4 5 3 12 2 15 -3 2 -4 -5 -8 -18
-8 -23 0 -28 19 -12 44 4 7 4 18 -1 25 -11 14 -11 77 0 95 5 6 5 18 0 25 -12
19 -12 37 -1 37 7 0 7 4 1 13 -11 14 -11 146 0 165 5 6 5 18 0 25 -15 24 -10
53 9 54 10 1 18 -3 18 -8z m5050 -20 c0 -5 -4 -9 -8 -9 -5 0 -9 7 -9 15 0 8 4
12 9 9 4 -3 8 -9 8 -15z m10 -53 c0 -6 -5 -3 -11 7 -8 14 -14 15 -24 7 -10 -8
-15 -8 -21 1 -4 7 -3 9 4 5 6 -3 14 -2 17 4 8 13 35 -6 35 -24z m-24 -5 c-4
-5 0 -12 6 -15 11 -5 11 -7 0 -12 -6 -3 -9 -11 -6 -16 4 -6 3 -8 -3 -5 -5 3
-9 16 -7 29 3 28 3 28 10 28 3 0 3 -4 0 -9z m10 -70 c-15 -16 -15 -19 -1 -24
8 -4 15 -11 15 -17 0 -5 -9 -2 -19 7 -18 15 -19 17 -3 39 9 12 19 20 21 18 2
-2 -3 -12 -13 -23z m1 -67 c-3 -3 -12 -4 -19 -1 -8 3 -5 6 6 6 11 1 17 -2 13
-5z m-17 -18 c0 -2 -7 -7 -16 -10 -8 -3 -12 -2 -9 4 6 10 25 14 25 6z m30 0
c0 -3 -4 -8 -10 -11 -5 -3 -10 -1 -10 4 0 6 5 11 10 11 6 0 10 -2 10 -4z m-4
-65 c-9 -13 -33 -14 -40 -2 -4 5 3 7 14 4 11 -3 20 0 20 6 0 6 -5 10 -11 9 -6
-2 -13 6 -15 16 -3 18 -2 18 18 -1 11 -12 17 -26 14 -32z m-6 -42 c0 -5 -4 -9
-8 -9 -5 0 -9 7 -9 15 0 8 4 12 9 9 4 -3 8 -9 8 -15z m10 -53 c0 -6 -5 -3 -11
7 -8 14 -14 15 -24 7 -10 -8 -15 -8 -21 1 -4 7 -3 9 4 5 6 -3 14 -2 17 4 8 13
35 -6 35 -24z m-25 -6 c-3 -5 -1 -10 6 -10 7 0 9 -3 6 -7 -4 -3 -2 -12 4 -19
6 -7 8 -18 4 -24 -8 -12 -32 -13 -39 -1 -4 5 3 7 14 4 11 -3 20 0 20 6 0 6 -5
10 -12 9 -6 -2 -11 7 -11 20 1 29 2 32 9 32 3 0 2 -4 -1 -10z m15 -101 c0 -5
-4 -9 -8 -9 -5 0 -9 7 -9 15 0 8 4 12 9 9 4 -3 8 -9 8 -15z m-5052 -3 c-10 -7
-15 -16 -11 -19 3 -4 12 -2 19 4 9 8 12 4 9 -18 -1 -15 -8 -29 -14 -31 -18 -6
-12 -22 7 -16 16 5 16 5 0 -6 -10 -6 -18 -18 -18 -27 0 -14 2 -14 16 3 14 18
15 18 4 -4 -6 -12 -8 -27 -5 -32 10 -17 14 -51 6 -45 -5 2 -14 -2 -20 -9 -8
-9 -8 -17 -2 -20 5 -3 11 0 14 6 2 7 4 1 3 -13 -1 -19 -5 -25 -16 -21 -12 4
-13 2 -3 -8 10 -11 10 -17 0 -29 -10 -12 -9 -14 5 -8 10 3 18 2 18 -3 0 -6 -7
-10 -15 -10 -8 0 -15 -5 -15 -11 0 -5 6 -7 12 -3 7 4 10 4 6 -1 -4 -4 -2 -17
4 -28 8 -16 7 -23 -5 -32 -12 -9 -13 -14 -2 -28 6 -9 16 -13 20 -9 4 4 3 -3
-4 -15 -14 -28 -14 -36 1 -27 10 6 10 5 1 -8 -7 -8 -9 -19 -5 -23 4 -5 2 -5
-5 -1 -6 3 -14 2 -18 -4 -3 -5 -1 -11 4 -11 26 -3 30 -4 35 -9 3 -4 -6 -6 -19
-6 -14 0 -25 4 -25 9 0 4 -3 6 -8 3 -4 -2 -7 31 -7 74 0 43 3 76 7 74 12 -8
15 21 3 41 -13 22 -13 159 0 189 4 10 4 21 -2 25 -5 3 -9 24 -9 47 1 41 19 74
40 74 6 0 3 -7 -6 -14z m5062 -50 c0 -6 -5 -3 -11 7 -8 14 -14 15 -24 7 -10
-8 -15 -8 -21 1 -4 7 -3 9 4 5 6 -3 14 -2 17 4 8 13 35 -6 35 -24z m-25 -6
c-3 -5 -1 -10 6 -10 7 0 9 -3 6 -7 -4 -3 -2 -12 4 -19 6 -7 8 -18 4 -24 -8
-12 -32 -13 -39 -1 -4 5 3 7 14 4 11 -3 20 0 20 6 0 6 -5 10 -12 9 -6 -2 -11
7 -11 20 1 29 2 32 9 32 3 0 2 -4 -1 -10z m15 -101 c0 -5 -4 -9 -8 -9 -5 0 -9
7 -9 15 0 8 4 12 9 9 4 -3 8 -9 8 -15z m10 -53 c0 -6 -5 -3 -11 7 -8 14 -14
15 -24 7 -10 -8 -15 -8 -21 1 -4 7 -3 9 4 5 6 -3 14 -2 17 4 8 13 35 -6 35
-24z m-25 -6 c-3 -5 -1 -10 6 -10 7 0 9 -3 6 -7 -4 -3 -2 -12 4 -19 6 -7 8
-18 4 -24 -8 -12 -32 -13 -39 -1 -4 5 3 7 14 4 11 -3 20 0 20 6 0 6 -5 10 -12
9 -6 -2 -11 7 -11 20 1 29 2 32 9 32 3 0 2 -4 -1 -10z m15 -101 c0 -5 -4 -9
-8 -9 -5 0 -9 7 -9 15 0 8 4 12 9 9 4 -3 8 -9 8 -15z m10 -53 c0 -6 -5 -3 -11
7 -8 14 -14 15 -24 7 -10 -8 -15 -8 -21 1 -4 7 -3 9 4 5 6 -3 14 -2 17 4 8 13
35 -6 35 -24z m-25 -6 c-3 -5 -1 -10 6 -10 7 0 9 -3 6 -7 -4 -3 -2 -12 4 -19
6 -7 8 -18 4 -24 -8 -12 -32 -13 -39 -1 -4 5 3 7 14 4 11 -3 20 0 20 6 0 6 -5
10 -12 9 -6 -2 -11 7 -11 20 1 29 2 32 9 32 3 0 2 -4 -1 -10z m-5005 -14 c0
-3 -4 -8 -10 -11 -5 -3 -10 -1 -10 4 0 6 5 11 10 11 6 0 10 -2 10 -4z m1261
-23 c24 -26 25 -34 23 -128 -1 -55 -5 -300 -8 -544 -6 -436 -9 -483 -29 -508
-10 -14 -153 -18 -174 -5 -34 22 -37 62 -39 607 -2 318 1 549 6 563 13 31 43
41 126 41 64 1 72 -1 95 -26z m-656 -28 c188 -7 265 -19 283 -42 13 -18 17
-140 4 -160 -14 -22 -57 -31 -167 -32 -156 -2 -203 -10 -220 -35 -17 -24 -20
-109 -4 -153 13 -38 33 -43 189 -43 149 0 160 -6 167 -101 5 -62 4 -68 -23
-97 -29 -31 -30 -31 -159 -38 -71 -3 -138 -10 -147 -15 -33 -18 -39 -50 -44
-227 -3 -97 -10 -185 -16 -195 -9 -17 -20 -19 -118 -15 -60 2 -111 5 -113 8
-16 17 -32 447 -32 858 l0 264 25 20 c22 18 34 19 120 14 52 -3 167 -8 255
-11z m4415 -36 c0 -5 -4 -9 -8 -9 -5 0 -9 7 -9 15 0 8 4 12 9 9 4 -3 8 -9 8
-15z m10 -53 c0 -6 -5 -3 -11 7 -8 14 -14 15 -24 7 -10 -8 -15 -8 -21 1 -4 7
-3 9 4 5 6 -3 14 -2 17 4 8 13 35 -6 35 -24z m-5065 -6 c17 -7 17 -9 3 -9 -19
-1 -20 -21 -3 -33 7 -5 6 -14 -3 -28 -15 -24 -5 -26 28 -3 23 15 24 16 12 0
-8 -9 -23 -19 -34 -23 -18 -5 -18 -7 -3 -18 15 -11 15 -13 1 -25 -9 -8 -16
-18 -16 -24 0 -7 4 -7 12 1 7 7 16 12 21 12 5 0 -1 -8 -13 -18 -16 -13 -20
-23 -14 -33 5 -8 9 -37 10 -65 1 -56 10 -78 26 -68 7 4 8 2 4 -5 -6 -9 -11 -9
-21 -1 -8 7 -16 7 -19 2 -3 -6 1 -13 10 -16 15 -6 15 -8 0 -24 -18 -21 -22
-42 -4 -24 7 7 16 12 21 12 5 0 -1 -8 -13 -18 -16 -13 -20 -23 -14 -33 4 -8 9
-23 10 -34 1 -11 4 -27 6 -35 3 -8 3 -12 1 -7 -3 4 -9 4 -15 1 -5 -4 0 -17 14
-32 16 -19 17 -22 4 -12 -18 13 -19 13 -14 -1 4 -9 1 -22 -5 -29 -10 -10 -8
-12 6 -7 10 4 16 3 13 -2 -10 -15 -43 -19 -43 -5 0 8 5 14 10 14 5 0 4 7 -3
15 -10 12 -10 18 0 30 7 8 8 15 3 15 -5 0 -9 9 -10 20 -1 11 3 20 8 20 6 0 7
-4 4 -10 -3 -5 -1 -10 4 -10 17 0 13 18 -7 29 -10 6 -12 11 -4 11 8 0 10 5 5
13 -9 13 -12 77 -3 72 3 -2 11 3 17 10 10 11 9 15 -8 20 -21 7 -21 32 1 27 6
-1 10 3 7 10 -2 7 -10 12 -16 10 -7 -1 -10 2 -6 8 3 6 11 7 17 4 6 -4 8 -1 6
7 -3 8 -10 13 -15 12 -5 -1 -10 5 -10 13 0 8 4 14 9 14 4 0 8 -5 8 -12 0 -6 3
-8 7 -4 5 4 -1 14 -11 22 -11 8 -14 14 -7 14 7 0 9 5 4 13 -9 13 -12 77 -3 72
3 -2 11 3 17 10 10 11 9 15 -7 20 -24 8 -25 18 -5 35 8 7 15 17 15 22 0 7 -4
7 -13 0 -9 -8 -12 -1 -13 29 -1 41 0 42 31 29z m5040 0 c-3 -5 -1 -10 6 -10 7
0 9 -3 6 -7 -4 -3 -2 -12 4 -19 6 -7 8 -18 4 -24 -8 -12 -32 -13 -39 -1 -4 5
3 7 14 4 11 -3 20 0 20 6 0 6 -5 10 -12 9 -6 -2 -11 7 -11 20 1 29 2 32 9 32
3 0 2 -4 -1 -10z m15 -101 c0 -5 -4 -9 -8 -9 -5 0 -9 7 -9 15 0 8 4 12 9 9 4
-3 8 -9 8 -15z m-2347 -21 c3 -13 7 -61 8 -108 1 -47 6 -95 12 -107 10 -22 46
-39 97 -45 23 -3 25 -7 25 -52 0 -48 -1 -49 -40 -63 -83 -28 -104 -74 -98
-213 5 -130 10 -141 70 -169 48 -22 55 -30 79 -89 23 -54 25 -65 13 -73 -8 -5
-68 -8 -133 -7 -104 3 -120 5 -130 22 -6 10 -25 38 -43 61 l-31 43 -3 148 c-4
195 -11 229 -54 274 -27 28 -35 44 -35 73 0 30 5 39 28 51 47 24 53 39 58 148
3 56 7 109 9 116 3 8 29 12 84 12 73 0 79 -2 84 -22z m562 10 c2 -7 6 -58 8
-113 3 -55 8 -108 12 -117 7 -19 55 -38 93 -38 36 0 62 -27 62 -65 0 -38 -15
-53 -72 -69 -70 -21 -83 -48 -82 -175 1 -143 10 -164 82 -188 54 -17 57 -20
90 -87 45 -90 38 -98 -85 -99 -109 -1 -189 17 -204 47 -6 11 -24 35 -39 51
l-28 30 -5 198 -4 197 -42 39 c-33 30 -41 45 -41 72 0 29 6 37 37 54 45 24 51
42 52 157 1 121 -1 118 87 118 51 0 76 -4 79 -12z m1795 -42 c0 -6 -5 -3 -11
7 -8 14 -14 15 -24 7 -10 -8 -15 -8 -21 1 -4 7 -3 9 4 5 6 -3 14 -2 17 4 8 13
35 -6 35 -24z m-24 -5 c-4 -5 0 -12 6 -15 11 -5 11 -7 0 -12 -6 -3 -9 -11 -6
-16 4 -6 3 -8 -3 -5 -5 3 -9 16 -7 29 3 28 3 28 10 28 3 0 3 -4 0 -9z m-5020
-31 c0 -12 -4 -16 -9 -11 -5 5 -6 14 -3 20 10 15 12 14 12 -9z m5030 -39 c-15
-16 -15 -19 -1 -24 8 -4 15 -11 15 -17 0 -5 -9 -2 -19 7 -18 15 -19 17 -3 39
9 12 19 20 21 18 2 -2 -3 -12 -13 -23z m4 -65 c0 -2 -9 -6 -20 -9 -11 -3 -18
-1 -14 4 5 9 34 13 34 5z m2 -28 c-8 -8 -9 -15 0 -25 8 -10 7 -12 -5 -7 -8 3
-18 12 -21 20 -3 9 -1 12 4 9 6 -3 10 -1 10 4 0 6 5 11 12 11 9 0 9 -3 0 -12z
m-3128 -60 c23 -6 68 -10 101 -8 33 2 98 4 145 4 l85 1 3 -326 2 -327 -22 -6
c-48 -13 -143 -6 -187 14 -55 25 -66 25 -109 -2 -31 -19 -51 -22 -137 -23
-129 0 -163 8 -207 49 -19 18 -39 35 -44 37 -5 2 -27 33 -49 69 -37 63 -39 68
-43 173 l-4 109 37 71 c77 148 149 190 314 181 41 -2 93 -9 115 -16z m2152 3
c23 -4 48 -13 55 -19 8 -7 34 -26 58 -44 52 -39 86 -99 103 -182 11 -58 11
-59 -16 -83 -25 -22 -35 -23 -164 -24 -166 -1 -260 -7 -283 -19 -9 -5 -22 -23
-27 -40 -13 -35 2 -53 76 -97 54 -32 101 -32 172 1 97 45 193 26 206 -40 3
-19 5 -36 3 -38 -2 -1 -28 -19 -57 -41 -69 -49 -113 -63 -215 -71 -171 -13
-279 26 -357 130 -49 65 -85 188 -76 260 10 88 87 224 140 247 12 5 33 19 48
30 15 12 44 25 65 29 52 10 219 11 269 1z m-4060 -51 c0 -12 -4 -16 -9 -11 -5
5 -6 14 -3 20 10 15 12 14 12 -9z m5039 -69 c-3 -6 -11 -11 -16 -11 -5 0 -4 6
3 14 14 16 24 13 13 -3z m-5 -35 c0 -2 -7 -6 -15 -10 -8 -3 -15 -1 -15 4 0 6
7 10 15 10 8 0 15 -2 15 -4z m9 -39 c0 -9 -2 -8 -6 1 -2 6 -10 9 -15 6 -7 -4
-8 -2 -4 5 9 13 26 5 25 -12z m-2 -53 c-4 -16 -5 -15 -6 3 -1 17 -6 21 -18 17
-15 -5 -16 -4 -3 5 19 13 33 -1 27 -25z m-5042 6 c-3 -5 -14 -10 -23 -9 -14 0
-13 2 3 9 27 11 27 11 20 0z m5019 -21 c-2 -4 2 -10 8 -13 11 -5 11 -7 0 -12
-6 -3 -9 -11 -5 -17 3 -7 2 -8 -3 -4 -5 5 -9 16 -9 25 0 9 -6 16 -13 14 -8 -1
-11 1 -8 6 3 5 12 9 20 9 8 0 13 -4 10 -8z m-5017 -15 c0 -7 -7 -10 -15 -7
-11 5 -12 2 -4 -14 6 -11 7 -25 2 -34 -8 -12 -12 -11 -27 4 -12 12 -14 17 -4
15 7 -2 16 3 19 11 2 8 0 11 -6 7 -6 -3 -14 -1 -18 5 -3 6 -2 14 4 18 18 11
49 8 49 -5z m5034 -47 c-6 -8 -9 -22 -5 -31 4 -10 1 -16 -7 -16 -7 0 -9 3 -6
7 4 3 0 18 -10 32 -15 24 -15 25 0 12 14 -11 18 -11 23 3 4 9 9 15 12 12 3 -3
0 -12 -7 -19z m-5051 -34 c10 10 11 9 4 -3 -17 -30 -3 -87 18 -74 7 4 8 2 4
-5 -6 -9 -11 -9 -21 -1 -8 7 -16 7 -19 2 -3 -6 1 -13 10 -16 15 -6 15 -8 0
-24 -18 -21 -22 -42 -4 -24 7 7 16 12 21 12 5 0 -1 -8 -13 -18 -16 -13 -20
-23 -14 -33 4 -8 9 -23 10 -34 1 -11 4 -27 6 -35 3 -8 3 -12 1 -7 -3 4 -9 4
-15 1 -5 -4 0 -17 14 -32 16 -19 17 -22 4 -12 -18 13 -19 13 -14 -1 4 -9 1
-22 -5 -29 -10 -10 -8 -12 6 -7 10 4 16 3 13 -2 -10 -15 -43 -19 -43 -5 0 8 5
14 10 14 5 0 4 7 -3 15 -10 12 -10 18 0 30 7 8 8 15 3 15 -5 0 -9 9 -10 20 -1
11 3 20 8 20 6 0 7 -4 4 -10 -3 -5 -1 -10 4 -10 17 0 13 18 -6 29 -11 6 -13
11 -5 11 8 0 10 5 5 13 -9 13 -12 77 -3 72 3 -2 11 3 17 10 10 11 9 15 -8 20
-21 7 -21 32 1 27 6 -1 10 3 7 10 -2 7 -10 12 -16 10 -7 -1 -10 2 -6 8 3 6 11
7 17 4 6 -4 8 -1 6 7 -3 8 -10 13 -15 12 -5 -1 -9 7 -9 18 0 18 2 18 11 5 9
-12 14 -13 25 -3z m5034 -40 c-5 -15 -3 -15 10 1 9 11 16 15 16 9 0 -7 -4 -15
-10 -18 -11 -7 -9 -33 3 -52 5 -7 5 -18 2 -23 -7 -11 -49 -9 -61 2 -3 4 8 4
25 2 25 -4 30 -2 25 10 -3 9 -11 13 -18 9 -7 -4 -7 -2 1 7 8 9 9 19 2 32 -5
10 -7 23 -4 28 10 16 15 12 9 -7z m-5018 -133 c0 -12 -4 -16 -9 -11 -5 5 -6
14 -3 20 10 15 12 14 12 -9z m5039 -29 c-7 -12 -49 -11 -61 1 -3 4 8 4 25 2
25 -4 30 -2 25 10 -3 9 -11 13 -17 9 -6 -4 -7 -1 -2 6 6 10 11 10 22 -2 9 -8
12 -20 8 -26z m0 -80 c-7 -12 -49 -11 -61 1 -3 4 8 4 25 2 25 -4 30 -2 25 10
-3 9 -11 13 -17 9 -6 -4 -7 -1 -2 6 6 10 11 10 22 -2 9 -8 12 -20 8 -26z m1
-80 c-9 -13 -33 -14 -40 -2 -4 5 3 7 14 4 11 -3 20 0 20 6 0 6 -3 10 -7 10
-18 -3 -24 2 -17 12 4 7 11 6 21 -4 9 -8 12 -20 9 -26z m-5041 -1 c-3 -5 -14
-10 -23 -9 -14 0 -13 2 3 9 27 11 27 11 20 0z m2 -36 c0 -7 -7 -10 -15 -7 -11
5 -12 2 -4 -14 6 -11 7 -25 2 -34 -8 -12 -12 -11 -27 4 -12 12 -14 17 -4 15 7
-2 16 3 19 11 2 8 0 11 -6 7 -6 -3 -14 -1 -18 5 -3 6 -2 14 4 18 18 11 49 8
49 -5z m5029 -2 c-3 -3 -1 -11 5 -18 6 -7 8 -18 4 -24 -8 -12 -32 -13 -39 -1
-4 5 3 7 14 4 12 -3 20 0 20 6 0 7 -4 10 -9 6 -5 -3 -12 -1 -15 4 -4 5 -2 12
4 16 6 4 7 11 4 17 -5 7 -2 8 5 4 7 -5 10 -11 7 -14z m-5046 -79 c10 10 11 9
4 -3 -17 -30 -3 -87 18 -74 7 4 8 2 4 -5 -6 -9 -11 -9 -21 -1 -8 7 -15 7 -19
1 -3 -5 0 -12 6 -14 7 -3 9 -6 3 -6 -18 -1 -38 17 -31 28 4 6 12 8 18 5 6 -4
8 -1 6 7 -3 8 -11 13 -17 11 -7 -1 -10 2 -6 8 3 6 11 7 17 4 6 -4 8 -1 6 7 -3
8 -10 13 -15 12 -5 -1 -9 7 -9 18 0 18 2 18 11 5 9 -12 14 -13 25 -3z m5050
-4 c0 -5 -4 -9 -8 -9 -5 0 -9 7 -9 15 0 8 4 12 9 9 4 -3 8 -9 8 -15z m10 -53
c0 -6 -5 -3 -11 7 -8 14 -14 15 -24 7 -10 -8 -15 -8 -21 1 -4 7 -3 9 4 5 6 -3
14 -2 17 4 8 13 35 -6 35 -24z m-25 -6 c-3 -5 -1 -10 6 -10 7 0 9 -3 6 -7 -4
-3 -2 -12 4 -19 6 -7 8 -18 4 -24 -8 -12 -32 -13 -39 -1 -4 5 3 7 14 4 11 -3
20 0 20 6 0 6 -5 10 -12 9 -6 -2 -11 7 -11 20 1 29 2 32 9 32 3 0 2 -4 -1 -10z
m-5035 -58 c-16 -7 -20 -48 -6 -70 4 -7 12 -10 17 -7 5 4 9 1 9 -4 0 -14 -13
-14 -28 1 -7 7 -12 8 -12 2 0 -17 35 -45 46 -36 5 4 -1 -2 -13 -13 -27 -24
-31 -44 -5 -24 9 7 7 2 -5 -12 -21 -23 -22 -27 -7 -47 14 -20 12 -26 -8 -23
-12 2 -4 -35 11 -53 7 -9 18 -13 24 -9 6 4 7 1 2 -6 -5 -9 -10 -10 -18 -2 -18
18 -28 12 -15 -9 11 -17 10 -22 -2 -30 -13 -9 -13 -10 0 -10 13 0 13 -1 0 -10
-13 -8 -12 -10 3 -10 9 0 17 -4 17 -10 0 -5 -7 -7 -16 -3 -15 5 -15 3 0 -25 9
-17 13 -39 9 -48 -4 -10 -2 -15 4 -11 5 3 10 0 10 -8 0 -11 -4 -12 -13 -4 -10
8 -12 5 -11 -10 1 -14 6 -20 15 -16 7 3 10 0 7 -6 -4 -6 -13 -8 -21 -5 -8 3
-14 1 -14 -4 0 -6 4 -10 9 -10 5 0 12 -7 15 -16 3 -8 2 -13 -3 -10 -19 12 -19
-24 0 -37 17 -12 18 -15 4 -20 -8 -4 -15 -12 -15 -18 0 -8 5 -7 18 2 10 8 8 3
-5 -11 -17 -20 -19 -29 -11 -44 7 -12 7 -17 0 -12 -14 9 -25 -25 -12 -38 8 -8
9 -6 5 7 -5 12 -2 17 11 17 14 0 16 -2 6 -9 -17 -10 -17 -21 -2 -31 9 -6 7
-11 -9 -19 -11 -7 -21 -10 -22 -9 -6 16 -4 88 3 88 4 0 8 5 8 11 0 5 -6 7 -12
3 -7 -4 -6 1 3 12 16 18 15 49 0 39 -10 -5 -8 41 2 51 9 10 9 26 -1 20 -10 -6
-9 75 1 92 5 6 4 12 -1 12 -4 0 -7 19 -6 43 1 23 2 42 4 42 1 0 3 8 5 18 2 9
0 17 -4 17 -4 0 -7 9 -8 20 -1 11 2 20 8 20 5 0 9 5 9 11 0 5 -4 8 -8 5 -4 -2
-8 6 -8 20 0 13 5 24 11 24 5 0 3 5 -5 10 -10 6 -11 10 -2 10 6 0 12 5 12 11
0 5 -6 7 -13 3 -6 -4 -5 1 4 12 16 18 15 49 0 40 -4 -3 -7 19 -7 49 1 29 4 51
9 48 4 -2 7 0 7 6 0 5 -6 11 -12 14 -18 5 9 37 31 36 14 0 14 -1 1 -7z m20
-36 c8 -11 10 -17 3 -13 -6 4 -13 1 -16 -5 -2 -7 -4 0 -4 15 0 15 0 27 1 25 1
-2 8 -12 16 -22z m5035 -6 c3 -6 -1 -7 -9 -4 -18 7 -21 14 -7 14 6 0 13 -4 16
-10z m-8 -36 c-3 -3 -12 -4 -19 -1 -8 3 -5 6 6 6 11 1 17 -2 13 -5z m13 -18
c0 -3 -4 -8 -10 -11 -5 -3 -10 -1 -10 4 0 6 5 11 10 11 6 0 10 -2 10 -4z m-18
-34 c-7 -2 -9 -9 -5 -15 3 -7 2 -8 -2 -4 -16 14 -14 36 3 29 10 -4 12 -7 4
-10z m15 -44 c-3 -7 -5 -2 -5 12 0 14 2 19 5 13 2 -7 2 -19 0 -25z m-5031 -10
c4 -7 3 -8 -4 -4 -7 4 -12 2 -12 -5 0 -7 -3 -10 -6 -6 -6 5 3 27 11 27 2 0 7
-5 11 -12z m5011 5 c-4 -3 1 -12 10 -18 15 -11 15 -15 4 -29 -18 -21 -28 -13
-25 21 3 34 2 33 11 33 3 0 3 -3 0 -7z m21 -91 c2 -7 -3 -15 -12 -18 -9 -3
-13 -11 -9 -17 4 -6 1 -7 -7 -2 -10 6 -10 11 3 20 18 13 24 31 8 20 -5 -3 -12
-1 -15 4 -4 5 2 8 11 7 9 -2 19 -8 21 -14z m-1 -64 c-3 -7 -5 -2 -5 12 0 14 2
19 5 13 2 -7 2 -19 0 -25z m-21 -7 c-3 -5 1 -12 10 -15 9 -3 14 -11 12 -18 -5
-14 -45 -21 -53 -8 -3 5 1 7 9 4 10 -4 14 0 12 13 -3 18 1 33 10 33 3 0 3 -4
0 -9z m-5001 -29 c-3 -3 -11 0 -18 7 -9 10 -8 11 6 5 10 -3 15 -9 12 -12z
m5012 -38 c-3 -3 -12 -4 -19 -1 -8 3 -5 6 6 6 11 1 17 -2 13 -5z m8 -33 c-3
-6 -11 -11 -16 -11 -5 0 -4 6 3 14 14 16 24 13 13 -3z m5 -43 c-1 -7 -12 -26
-26 -43 -19 -22 -23 -24 -15 -7 11 21 8 26 -12 23 -5 -1 -6 3 -3 8 4 5 15 8
26 6 13 -2 20 2 20 11 0 8 2 14 5 14 3 0 5 -6 5 -12z m-5025 -66 c-3 -3 -11 0
-18 7 -9 10 -8 11 6 5 10 -3 15 -9 12 -12z m5021 -11 c-4 -6 -13 -11 -19 -10
-9 0 -9 2 0 5 7 3 9 13 6 22 -5 13 -3 14 7 5 7 -6 9 -16 6 -22z m-5036 -21 c0
-5 -2 -10 -4 -10 -3 0 -8 5 -11 10 -3 6 -1 10 4 10 6 0 11 -4 11 -10z m5030
-20 c0 -5 -4 -10 -10 -10 -5 0 -10 5 -10 10 0 6 5 10 10 10 6 0 10 -4 10 -10z
m4 -60 c-5 -4 -18 -4 -29 1 -18 9 -18 9 3 5 15 -3 22 1 23 12 0 12 2 13 6 4 3
-8 1 -17 -3 -22z m-5028 -2 c4 -7 3 -8 -4 -4 -7 4 -12 2 -12 -5 0 -7 -3 -10
-6 -6 -6 5 3 27 11 27 2 0 7 -5 11 -12z m5033 -62 c-1 -20 -1 -19 -7 2 -4 13
-11 22 -16 20 -5 -2 -10 5 -12 15 -2 18 -2 18 17 1 10 -9 19 -27 18 -38z m-25
-17 c-2 -4 2 -10 8 -13 11 -5 11 -7 0 -12 -6 -3 -9 -11 -5 -17 3 -7 2 -8 -3
-4 -5 5 -9 16 -9 25 0 9 -6 16 -13 14 -8 -1 -11 1 -8 6 3 5 12 9 20 9 8 0 13
-4 10 -8z m23 -71 c-3 -7 -5 -2 -5 12 0 14 2 19 5 13 2 -7 2 -19 0 -25z m-21
-7 c-4 -5 0 -11 6 -14 7 -2 9 -8 5 -13 -9 -10 -28 16 -21 28 3 4 7 8 10 8 3 0
3 -4 0 -9z m-21 -30 c3 -5 2 -12 -3 -15 -5 -3 -9 1 -9 9 0 17 3 19 12 6z m20
-21 c-3 -5 -2 -10 4 -10 5 0 12 6 14 13 4 9 6 9 6 -1 1 -14 -26 -28 -35 -19
-6 6 4 27 12 27 3 0 2 -4 -1 -10z m-15 -34 c0 -2 -8 -10 -17 -17 -16 -13 -17
-12 -4 4 13 16 21 21 21 13z m35 -18 c-2 -23 -4 -24 -28 -14 -8 3 -6 10 7 20
24 20 23 20 21 -6z m-5022 -73 c-3 -9 -8 -14 -10 -11 -3 3 -2 9 2 15 9 16 15
13 8 -4z m47 -69 c0 -2 -9 -6 -20 -9 -11 -3 -18 -1 -14 4 5 9 34 13 34 5z
m4843 -147 c-8 -8 -13 -7 -18 2 -5 8 -4 10 3 5 7 -4 12 -2 12 5 0 7 3 9 7 6 4
-4 2 -12 -4 -18z m7 -23 c0 -11 -19 -15 -25 -6 -3 5 1 10 9 10 9 0 16 -2 16
-4z m-4716 -118 c-4 -6 -10 -5 -15 3 -14 22 -10 33 6 19 8 -7 12 -17 9 -22z
m61 -8 c-3 -5 -12 -10 -18 -10 -7 0 -6 4 3 10 19 12 23 12 15 0z m11 -38 c-3
-5 4 -15 15 -22 10 -8 19 -18 19 -23 0 -5 -13 2 -29 15 -27 22 -31 38 -10 38
6 0 8 -4 5 -8z m4405 -65 c-10 -9 -11 -8 -5 6 3 10 9 15 12 12 3 -3 0 -11 -7
-18z m-15 -39 c3 -4 -1 -5 -10 -4 -8 1 -18 5 -22 8 -3 4 1 5 10 4 8 -1 18 -5
22 -8z m-76 -12 c0 -2 -7 -7 -16 -10 -8 -3 -12 -2 -9 4 6 10 25 14 25 6z
m-145 -86 c3 -5 1 -10 -4 -10 -6 0 -11 5 -11 10 0 6 2 10 4 10 3 0 8 -4 11
-10z m-781 -46 c3 -8 2 -12 -4 -9 -6 3 -10 10 -10 16 0 14 7 11 14 -7z m401 7
c3 -5 2 -12 -3 -15 -5 -3 -9 1 -9 9 0 17 3 19 12 6z m156 -14 c-10 -9 -11 -8
-5 6 3 10 9 15 12 12 3 -3 0 -11 -7 -18z m64 13 c3 -5 1 -10 -4 -10 -6 0 -11
5 -11 10 0 6 2 10 4 10 3 0 8 -4 11 -10z m-898 -15 c0 -8 -4 -15 -9 -15 -10 0
-11 14 -1 23 9 10 10 9 10 -8z m-2289 -20 c-3 -3 -9 2 -12 12 -6 14 -5 15 5 6
7 -7 10 -15 7 -18z m197 7 c-3 -3 -11 0 -18 7 -9 10 -8 11 6 5 10 -3 15 -9 12
-12z m255 13 c0 -7 -30 -13 -34 -7 -3 4 4 9 15 9 10 1 19 0 19 -2z m374 -4
c-8 -8 -43 -8 -38 0 2 4 13 7 24 6 10 -1 17 -3 14 -6z m38 -16 c-2 -14 -8 -28
-13 -31 -5 -3 -7 2 -4 10 3 9 7 23 10 31 7 24 13 17 7 -10z m442 16 c-8 -8
-43 -8 -38 0 2 4 13 7 24 6 10 -1 17 -3 14 -6z m122 -3 c4 -7 3 -8 -4 -4 -7 4
-12 3 -12 -3 0 -6 -8 -7 -17 -4 -17 7 -15 8 24 22 1 1 5 -4 9 -11z m344 4 c0
-5 -7 -9 -15 -9 -8 0 -12 4 -9 9 7 10 24 10 24 0z m104 -41 c-5 -6 -44 35 -44
46 0 4 11 -4 24 -17 13 -14 22 -27 20 -29z m376 45 c0 -2 -7 -7 -16 -10 -8 -3
-12 -2 -9 4 6 10 25 14 25 6z m-1909 -27 c17 -17 23 -19 30 -8 4 7 6 16 3 21
-3 4 9 2 26 -3 34 -12 36 -15 14 -23 -8 -3 -12 -2 -9 4 3 6 -1 10 -10 10 -9 0
-13 -4 -10 -10 7 -11 7 -11 -44 -15 -28 -2 -31 -1 -16 7 17 10 16 12 -6 24
-13 7 -18 13 -11 14 6 0 22 -10 33 -21z m246 15 c-3 -4 -2 -16 4 -28 9 -19 9
-19 -4 -3 -8 9 -20 17 -28 16 -10 0 -11 -2 -1 -6 6 -2 12 -9 12 -15 0 -6 -6
-6 -15 2 -12 10 -18 10 -30 0 -8 -7 -15 -9 -15 -6 0 4 7 14 15 22 8 9 15 13
15 10 0 -3 10 -1 23 4 28 11 32 12 24 4z m137 -9 c3 -8 1 -15 -4 -15 -6 0 -10
7 -10 15 0 8 2 15 4 15 2 0 6 -7 10 -15z m60 -35 c-3 -2 -10 2 -15 10 -8 11
-12 12 -16 3 -2 -7 -9 -13 -15 -13 -6 0 -4 8 5 18 10 10 16 21 15 23 -2 2 5
-5 14 -16 9 -11 14 -22 12 -25z m337 32 c-7 -2 -18 1 -23 6 -8 8 -4 9 13 5 13
-4 18 -8 10 -11z m139 -26 c0 -5 -7 -1 -15 10 -8 10 -14 24 -14 29 0 6 6 1 14
-9 8 -11 15 -24 15 -30z m341 26 c-7 -2 -18 1 -23 6 -8 8 -4 9 13 5 13 -4 18
-8 10 -11z m289 8 c0 -5 -5 -10 -11 -10 -5 0 -7 5 -4 10 3 6 8 10 11 10 2 0 4
-4 4 -10z m330 -34 c0 -5 -7 -1 -15 10 -8 10 -14 24 -14 29 0 6 6 1 14 -9 8
-11 15 -24 15 -30z m-1731 24 c6 8 12 12 15 10 2 -3 -2 -14 -10 -25 -13 -17
-16 -18 -24 -5 -5 8 -10 20 -10 25 0 6 5 3 10 -5 9 -13 11 -13 19 0z m216 -29
c-4 -3 -11 1 -16 9 -8 11 -12 12 -16 3 -2 -7 -9 -13 -14 -13 -5 0 -4 9 3 20
11 18 14 18 30 3 10 -9 16 -19 13 -22z m205 31 c0 -4 -9 -13 -20 -20 -23 -14
-26 -8 -7 13 13 16 27 19 27 7z m59 -2 c6 8 12 12 15 10 2 -3 -2 -14 -10 -25
-13 -17 -16 -18 -24 -5 -5 8 -10 20 -10 25 0 6 5 3 10 -5 9 -13 11 -13 19 0z
m101 -10 c8 -16 8 -18 -5 -14 -8 3 -12 10 -9 15 3 5 -2 9 -11 9 -9 0 -13 -4
-10 -10 3 -6 -1 -7 -9 -4 -24 9 -19 19 9 22 16 1 28 -5 35 -18z m110 8 c0 -4
-6 -8 -14 -8 -8 0 -17 4 -20 8 -2 4 4 8 15 8 10 0 19 -4 19 -8z m150 2 c0 -5
-4 -10 -10 -10 -5 0 -10 5 -10 10 0 6 5 10 10 10 6 0 10 -4 10 -10z m218 -7
c2 -7 -1 -13 -8 -13 -6 0 -9 4 -5 9 3 5 -3 12 -12 15 -15 4 -15 5 1 3 11 -1
21 -8 24 -14z m156 2 c3 -8 1 -15 -4 -15 -6 0 -10 7 -10 15 0 8 2 15 4 15 2 0
6 -7 10 -15z m260 -25 c-6 -5 -24 21 -24 34 0 6 6 1 14 -10 8 -10 12 -21 10
-24z m31 11 c-6 -5 -25 10 -25 20 0 5 6 4 14 -3 8 -7 12 -15 11 -17z m35 9 c9
-16 8 -18 -5 -14 -8 3 -13 10 -10 14 3 5 -3 11 -12 13 -16 4 -17 5 -1 6 10 0
22 -8 28 -19z m69 -2 c6 -10 7 -18 2 -18 -5 0 -12 6 -14 13 -4 9 -7 9 -15 -1
-7 -10 -11 -10 -22 3 -11 13 -10 14 5 9 11 -5 16 -4 12 3 -3 5 0 10 7 10 7 0
18 -9 25 -19z m91 -10 c0 -5 -9 -3 -20 4 -11 7 -20 16 -20 20 0 5 9 3 20 -4
11 -7 20 -16 20 -20z m-1543 16 c-3 -3 -12 -4 -19 -1 -8 3 -5 6 6 6 11 1 17
-2 13 -5z m170 0 c-3 -3 -12 -4 -19 -1 -8 3 -5 6 6 6 11 1 17 -2 13 -5z m288
-12 c-3 -3 -11 0 -18 7 -9 10 -8 11 6 5 10 -3 15 -9 12 -12z m192 12 c-3 -3
-12 -4 -19 -1 -8 3 -5 6 6 6 11 1 17 -2 13 -5z m70 0 c-3 -3 -12 -4 -19 -1 -8
3 -5 6 6 6 11 1 17 -2 13 -5z m153 -9 c0 -12 -19 -12 -23 0 -4 9 -1 12 9 8 7
-3 14 -7 14 -8z m65 -3 c-3 -3 -11 0 -18 7 -9 10 -8 11 6 5 10 -3 15 -9 12
-12z m159 3 c-4 -8 -11 -12 -16 -9 -6 4 -5 10 3 15 19 12 19 11 13 -6z m96 0
c7 -9 8 -15 2 -15 -5 0 -12 7 -16 15 -7 19 -2 19 14 0z m81 1 c5 3 9 0 9 -6 0
-7 -7 -9 -16 -6 -9 3 -18 6 -20 6 -3 0 -2 5 2 12 6 9 9 9 12 0 2 -7 8 -10 13
-6z m216 8 c-3 -3 -12 -4 -19 -1 -8 3 -5 6 6 6 11 1 17 -2 13 -5z m-2252 -14
c3 -5 1 -10 -4 -10 -6 0 -11 5 -11 10 0 6 2 10 4 10 3 0 8 -4 11 -10z m565 0
c0 -5 -5 -10 -11 -10 -5 0 -7 5 -4 10 3 6 8 10 11 10 2 0 4 -4 4 -10z m480 0
c0 -5 -5 -10 -11 -10 -5 0 -7 5 -4 10 3 6 8 10 11 10 2 0 4 -4 4 -10z m75 0
c3 -5 1 -10 -4 -10 -6 0 -11 5 -11 10 0 6 2 10 4 10 3 0 8 -4 11 -10z m135 0
c0 -5 -2 -10 -4 -10 -3 0 -8 5 -11 10 -3 6 -1 10 4 10 6 0 11 -4 11 -10z m260
6 c0 -3 -4 -8 -10 -11 -5 -3 -10 -1 -10 4 0 6 5 11 10 11 6 0 10 -2 10 -4z
m220 -6 c0 -5 -2 -10 -4 -10 -3 0 -8 5 -11 10 -3 6 -1 10 4 10 6 0 11 -4 11
-10z m894 2 c3 -5 -1 -9 -9 -9 -8 0 -12 4 -9 9 3 4 7 8 9 8 2 0 6 -4 9 -8z"/>
<path d="M29 4098 c0 -2 -2 -11 -4 -21 -3 -15 -1 -16 11 -6 7 6 11 15 8 20 -5
9 -13 12 -15 7z"/>
<path d="M24 3974 c2 -10 8 -20 14 -22 17 -5 15 13 -2 27 -12 10 -14 9 -12 -5z"/>
<path d="M24 3895 c2 -30 21 -52 30 -36 4 6 0 11 -11 11 -15 0 -16 2 -3 10 11
7 11 10 2 10 -7 0 -11 4 -7 9 3 5 1 12 -3 15 -5 3 -8 -6 -8 -19z"/>
<path d="M25 3739 c0 -33 2 -37 12 -23 7 9 10 20 8 25 -3 4 1 9 7 11 8 3 6 9
-7 16 -19 10 -21 8 -20 -29z"/>
<path d="M25 3546 c0 -19 4 -38 9 -43 5 -5 6 -3 2 5 -5 8 -1 21 10 33 9 10 14
22 11 26 -4 3 -7 0 -7 -7 0 -10 -4 -9 -13 3 -11 16 -12 13 -12 -17z"/>
<path d="M29 3458 c0 -2 -2 -17 -4 -35 -3 -30 -3 -31 16 -15 11 9 15 18 9 20
-5 2 -8 8 -5 12 3 5 1 11 -5 15 -5 3 -10 5 -11 3z"/>
<path d="M23 3365 c0 -8 4 -12 9 -9 5 3 6 10 3 15 -9 13 -12 11 -12 -6z"/>
<path d="M23 3325 c0 -8 4 -12 9 -9 5 3 6 10 3 15 -9 13 -12 11 -12 -6z"/>
<path d="M30 3225 c-11 -13 -10 -14 4 -9 9 3 16 10 16 15 0 13 -6 11 -20 -6z"/>
<path d="M25 3150 c0 -38 2 -46 12 -38 10 8 10 14 3 23 -8 9 -7 15 2 19 10 5
10 7 0 12 -6 3 -10 10 -7 14 3 5 2 11 -2 13 -5 3 -8 -17 -8 -43z"/>
<path d="M24 2509 c-3 -6 -2 -15 3 -20 5 -5 9 -1 9 11 0 23 -2 24 -12 9z"/>
<path d="M1885 2541 c-33 -12 -89 -40 -106 -53 -30 -24 -72 -126 -65 -161 15
-82 113 -178 196 -192 29 -4 45 1 98 35 50 33 68 51 84 88 45 100 12 202 -82
258 -54 33 -86 39 -125 25z"/>
<path d="M3935 2555 c-22 -8 -41 -15 -42 -15 -1 0 -8 -18 -14 -40 -9 -29 -9
-44 -1 -52 13 -13 181 -19 205 -6 42 22 2 100 -61 118 -45 12 -38 12 -87 -5z"/>
<path d="M24 2029 c-3 -6 -2 -15 3 -20 5 -5 9 -1 9 11 0 23 -2 24 -12 9z"/>
<path d="M24 1610 c0 -11 5 -21 11 -21 16 -1 17 17 2 30 -12 9 -14 7 -13 -9z"/>
<path d="M26 1407 c3 -10 9 -15 12 -12 3 3 0 11 -7 18 -10 9 -11 8 -5 -6z"/>
<path d="M25 1306 c5 -32 12 -43 22 -32 4 4 2 11 -6 15 -7 5 -12 11 -11 15 1
4 -1 12 -4 19 -3 6 -3 -1 -1 -17z"/>
<path d="M29 1258 c-5 -9 -5 -48 -1 -43 6 6 11 45 5 45 -2 0 -4 -1 -4 -2z"/>
<path d="M24 1123 c2 -10 6 -17 10 -16 15 3 16 11 2 22 -12 10 -14 9 -12 -6z"/>
<path d="M23 965 c0 -8 4 -12 9 -9 5 3 6 10 3 15 -9 13 -12 11 -12 -6z"/>
<path d="M5083 1505 c0 -8 4 -12 9 -9 4 3 8 9 8 15 0 5 -4 9 -8 9 -5 0 -9 -7
-9 -15z"/>
<path d="M5085 1350 c3 -5 8 -10 11 -10 2 0 4 5 4 10 0 6 -5 10 -11 10 -5 0
-7 -4 -4 -10z"/>
<path d="M4351 5113 c-1 -17 16 -25 25 -12 4 7 3 9 -4 5 -5 -3 -13 0 -15 6 -4
9 -6 10 -6 1z"/>
<path d="M649 5053 c-13 -16 -12 -17 4 -4 9 7 17 15 17 17 0 8 -8 3 -21 -13z"/>
<path d="M466 4951 c-4 -5 -2 -12 3 -15 5 -4 12 -2 15 3 4 5 2 12 -3 15 -5 4
-12 2 -15 -3z"/>
<path d="M433 4923 c-1 -24 -1 -25 7 -8 11 26 12 35 2 35 -4 0 -8 -12 -9 -27z"/>
<path d="M4713 4932 c2 -12 6 -24 10 -28 3 -4 4 4 2 16 -2 12 -7 25 -10 28 -3
3 -4 -4 -2 -16z"/>
<path d="M5029 4559 c-12 -24 3 -50 16 -28 5 8 4 10 -3 5 -7 -4 -12 -2 -12 3
0 6 4 11 8 11 5 0 9 7 9 15 0 20 -4 19 -18 -6z"/>
<path d="M124 4532 c-15 -10 -30 -52 -19 -52 3 0 5 3 5 8 1 4 8 17 16 30 15
24 15 26 -2 14z"/>
<path d="M76 4517 c3 -10 9 -15 12 -12 3 3 0 11 -7 18 -10 9 -11 8 -5 -6z"/>
<path d="M50 4401 c0 -6 4 -13 10 -16 6 -3 7 1 4 9 -7 18 -14 21 -14 7z"/>
<path d="M50 4283 c0 -16 -2 -16 -11 -3 -9 12 -10 12 -5 -4 5 -14 3 -17 -11
-12 -14 6 -15 4 -6 -5 13 -13 29 -6 43 22 7 13 7 19 0 19 -5 0 -10 -8 -10 -17z"/>
<path d="M7 4239 c7 -7 15 -10 18 -7 3 3 -2 9 -12 12 -14 6 -15 5 -6 -5z"/>
<path d="M39 4178 c-1 -2 -3 -13 -4 -25 -2 -24 9 -31 20 -13 3 6 1 10 -4 10
-6 0 -11 5 -11 11 0 5 5 7 12 3 7 -4 8 -3 4 4 -7 11 -14 15 -17 10z"/>
<path d="M5101 724 c0 -11 3 -14 6 -6 3 7 2 16 -1 19 -3 4 -6 -2 -5 -13z"/>
<path d="M5030 560 c0 -5 5 -10 11 -10 5 0 7 5 4 10 -3 6 -8 10 -11 10 -2 0
-4 -4 -4 -10z"/>
<path d="M170 499 c0 -5 -5 -7 -12 -3 -7 4 -8 3 -4 -4 4 -6 14 -8 23 -5 11 4
14 3 9 -5 -4 -7 -1 -12 10 -12 16 0 16 1 -1 20 -21 23 -25 24 -25 9z"/>
<path d="M190 450 c-8 -5 -12 -12 -9 -15 4 -3 12 1 19 10 14 17 11 19 -10 5z"/>
<path d="M370 239 c0 -6 5 -7 12 -3 8 5 9 2 4 -11 -5 -15 -4 -16 9 -5 12 10
15 10 15 0 0 -8 2 -11 5 -8 3 3 3 12 0 19 -6 17 -45 23 -45 8z"/>
<path d="M430 214 c0 -8 5 -12 10 -9 6 4 8 11 5 16 -9 14 -15 11 -15 -7z"/>
<path d="M547 127 c-3 -8 1 -14 8 -14 7 0 11 6 8 14 -3 7 -6 13 -8 13 -2 0 -5
-6 -8 -13z"/>
<path d="M584 118 c-4 -5 -3 -12 0 -15 3 -4 6 -1 6 5 0 6 6 9 14 6 8 -3 12
-12 10 -19 -3 -7 -1 -16 5 -20 7 -4 8 0 4 11 -5 14 -3 15 18 4 l24 -13 -25 25
c-26 25 -47 31 -56 16z"/>
<path d="M646 62 c-3 -5 1 -9 9 -9 8 0 12 4 9 9 -3 4 -7 8 -9 8 -2 0 -6 -4 -9
-8z"/>
<path d="M1300 52 c0 -12 19 -26 26 -19 2 2 -2 10 -11 17 -9 8 -15 8 -15 2z"/>
<path d="M3775 51 c-3 -5 -1 -12 5 -16 5 -3 10 1 10 9 0 18 -6 21 -15 7z"/>
<path d="M3885 50 c-4 -6 -12 -7 -18 -4 -7 4 -8 3 -4 -1 10 -12 67 -16 67 -5
0 4 -7 11 -16 14 -21 8 -22 8 -29 -4z"/>
<path d="M3555 40 c-3 -5 -1 -10 4 -10 6 0 11 5 11 10 0 6 -2 10 -4 10 -3 0
-8 -4 -11 -10z"/>
<path d="M4186 41 c-3 -4 6 -7 19 -7 14 0 22 2 19 5 -8 8 -34 10 -38 2z"/>
</g>
</svg>
